<svg width="38" height="52" viewBox="0 0 38 52" fill="none" xmlns="http://www.w3.org/2000/svg">
<path d="M18.9999 51.8333C18.3777 51.8333 17.8444 51.6611 17.3999 51.3166C16.9555 50.9722 16.6221 50.5201 16.3999 49.9604C15.5555 47.5493 14.4888 45.2888 13.1999 43.1791C11.9555 41.0694 10.1999 38.5937 7.93325 35.752C5.66659 32.9104 3.82214 30.1979 2.39992 27.6145C1.02214 25.0312 0.333252 21.9097 0.333252 18.25C0.333252 13.2125 2.13325 8.94996 5.73325 5.46246C9.3777 1.9319 13.7999 0.166626 18.9999 0.166626C24.1999 0.166626 28.5999 1.9319 32.1999 5.46246C35.8444 8.94996 37.6666 13.2125 37.6666 18.25C37.6666 22.168 36.8888 25.4402 35.3333 28.0666C33.8221 30.65 32.0666 33.2118 30.0666 35.752C27.6666 38.852 25.8444 41.4354 24.5999 43.502C23.3999 45.5257 22.3999 47.6784 21.5999 49.9604C21.3777 50.5632 21.0221 51.0368 20.5333 51.3812C20.0888 51.6826 19.5777 51.8333 18.9999 51.8333ZM18.9999 24.7083C20.8666 24.7083 22.4444 24.084 23.7333 22.8354C25.0221 21.5868 25.6666 20.0583 25.6666 18.25C25.6666 16.4416 25.0221 14.9132 23.7333 13.6645C22.4444 12.4159 20.8666 11.7916 18.9999 11.7916C17.1333 11.7916 15.5555 12.4159 14.2666 13.6645C12.9777 14.9132 12.3333 16.4416 12.3333 18.25C12.3333 20.0583 12.9777 21.5868 14.2666 22.8354C15.5555 24.084 17.1333 24.7083 18.9999 24.7083Z" fill="#FBAA00"/>
</svg>
