<svg width="46" height="46" viewBox="0 0 46 46" fill="none" xmlns="http://www.w3.org/2000/svg">
<path d="M28.1001 10C30.0536 10.3811 31.8489 11.3365 33.2562 12.7439C34.6636 14.1512 35.619 15.9465 36.0001 17.9M28.1001 2C32.1587 2.45087 35.9433 4.26835 38.8326 7.15402C41.7219 10.0397 43.5441 13.822 44.0001 17.88M42.0001 33.84V39.84C42.0024 40.397 41.8883 40.9483 41.6651 41.4587C41.442 41.9691 41.1147 42.4272 40.7043 42.8037C40.2938 43.1803 39.8093 43.467 39.2816 43.6454C38.754 43.8239 38.1949 43.8901 37.6401 43.84C31.4858 43.1713 25.5741 41.0683 20.3801 37.7C15.5478 34.6293 11.4508 30.5323 8.38011 25.7C5.00007 20.4824 2.8966 14.542 2.24011 8.36C2.19013 7.80693 2.25586 7.24952 2.43311 6.72325C2.61036 6.19698 2.89525 5.71338 3.26964 5.30324C3.64403 4.89311 4.09972 4.56542 4.60769 4.34104C5.11566 4.11667 5.66479 4.00052 6.22011 4H12.2201C13.1907 3.99045 14.1317 4.33416 14.8676 4.96707C15.6036 5.59997 16.0843 6.47889 16.2201 7.44C16.4734 9.36013 16.943 11.2455 17.6201 13.06C17.8892 13.7758 17.9474 14.5538 17.7879 15.3018C17.6284 16.0497 17.2578 16.7362 16.7201 17.28L14.1801 19.82C17.0272 24.8271 21.173 28.9729 26.1801 31.82L28.7201 29.28C29.2639 28.7423 29.9504 28.3717 30.6983 28.2122C31.4463 28.0527 32.2243 28.1109 32.9401 28.38C34.7547 29.0571 36.64 29.5268 38.5601 29.78C39.5316 29.9171 40.4189 30.4064 41.0532 31.155C41.6874 31.9036 42.0244 32.8592 42.0001 33.84Z" stroke="#FBAA00" stroke-width="4" stroke-linecap="round" stroke-linejoin="round"/>
</svg>
